<svg xmlns="http://www.w3.org/2000/svg" xmlns:xlink="http://www.w3.org/1999/xlink" width="300" zoomAndPan="magnify" viewBox="0 0 224.87999 225" height="300" preserveAspectRatio="xMidYMid meet" version="1.0"><path fill="#02679a" d="M 141.796875 197.355469 C 169.90625 197.355469 193.101562 174.472656 193.101562 146.140625 C 193.101562 127.890625 183.550781 111.820312 169.085938 102.828125 L 169.085938 35 C 169.085938 28.460938 163.628906 23.015625 157.078125 23.015625 L 42.734375 23.015625 C 36.183594 23.015625 30.726562 28.460938 30.726562 35 L 30.726562 108.277344 C 30.726562 114.816406 36.183594 120.261719 42.734375 120.261719 L 97.585938 120.261719 C 92.949219 127.890625 90.492188 136.878906 90.492188 146.140625 C 90.492188 174.472656 113.414062 197.355469 141.796875 197.355469 Z M 182.1875 146.140625 C 182.1875 168.207031 164.175781 186.457031 141.796875 186.457031 C 119.691406 186.457031 101.40625 168.480469 101.40625 146.140625 C 101.40625 123.804688 119.417969 105.824219 141.796875 105.824219 C 163.902344 106.097656 182.1875 124.078125 182.1875 146.140625 Z M 156.535156 33.910156 L 99.769531 77.769531 L 43.28125 33.910156 Z M 41.640625 108.277344 L 41.640625 46.714844 L 99.769531 91.660156 L 157.898438 46.714844 L 157.898438 97.925781 C 152.714844 96.292969 147.253906 95.203125 141.796875 95.203125 C 128.152344 95.203125 115.597656 100.648438 106.320312 109.367188 L 42.734375 109.367188 C 42.1875 109.367188 41.640625 108.824219 41.640625 108.277344 Z M 41.640625 108.277344 " fill-opacity="1" fill-rule="nonzero"/><path fill="#02679a" d="M 125.695312 146.140625 C 118.328125 146.140625 112.324219 152.679688 112.324219 160.851562 L 139.339844 160.851562 C 138.796875 152.679688 133.0625 146.140625 125.695312 146.140625 Z M 125.695312 146.140625 " fill-opacity="1" fill-rule="nonzero"/><path fill="#02679a" d="M 134.15625 135.519531 C 134.15625 136.074219 134.101562 136.621094 133.992188 137.164062 C 133.886719 137.710938 133.722656 138.238281 133.511719 138.75 C 133.300781 139.261719 133.039062 139.75 132.730469 140.210938 C 132.421875 140.671875 132.070312 141.097656 131.679688 141.488281 C 131.285156 141.882812 130.859375 142.230469 130.394531 142.539062 C 129.933594 142.847656 129.445312 143.109375 128.933594 143.320312 C 128.421875 143.53125 127.890625 143.691406 127.347656 143.800781 C 126.800781 143.910156 126.25 143.964844 125.695312 143.964844 C 125.140625 143.964844 124.589844 143.910156 124.046875 143.800781 C 123.5 143.691406 122.972656 143.53125 122.457031 143.320312 C 121.945312 143.109375 121.457031 142.847656 120.996094 142.539062 C 120.535156 142.230469 120.105469 141.882812 119.714844 141.488281 C 119.320312 141.097656 118.96875 140.671875 118.660156 140.210938 C 118.351562 139.75 118.09375 139.261719 117.878906 138.75 C 117.667969 138.238281 117.507812 137.710938 117.398438 137.164062 C 117.289062 136.621094 117.234375 136.074219 117.234375 135.519531 C 117.234375 134.964844 117.289062 134.414062 117.398438 133.871094 C 117.507812 133.328125 117.667969 132.800781 117.878906 132.285156 C 118.09375 131.773438 118.351562 131.289062 118.660156 130.828125 C 118.96875 130.367188 119.320312 129.9375 119.714844 129.546875 C 120.105469 129.15625 120.535156 128.804688 120.996094 128.496094 C 121.457031 128.1875 121.945312 127.929688 122.457031 127.714844 C 122.972656 127.503906 123.5 127.34375 124.046875 127.234375 C 124.589844 127.128906 125.140625 127.074219 125.695312 127.074219 C 126.25 127.074219 126.800781 127.128906 127.347656 127.234375 C 127.890625 127.34375 128.421875 127.503906 128.933594 127.714844 C 129.445312 127.929688 129.933594 128.1875 130.394531 128.496094 C 130.859375 128.804688 131.285156 129.15625 131.679688 129.546875 C 132.070312 129.9375 132.421875 130.367188 132.730469 130.828125 C 133.039062 131.289062 133.300781 131.773438 133.511719 132.285156 C 133.722656 132.800781 133.886719 133.328125 133.992188 133.871094 C 134.101562 134.414062 134.15625 134.964844 134.15625 135.519531 Z M 134.15625 135.519531 " fill-opacity="1" fill-rule="nonzero"/><path fill="#02679a" d="M 157.625 146.140625 C 150.257812 146.140625 144.253906 152.679688 144.253906 160.851562 L 171.269531 160.851562 C 170.996094 152.679688 164.992188 146.140625 157.625 146.140625 Z M 157.625 146.140625 " fill-opacity="1" fill-rule="nonzero"/><path fill="#02679a" d="M 166.085938 135.519531 C 166.085938 136.074219 166.03125 136.621094 165.921875 137.164062 C 165.8125 137.710938 165.652344 138.238281 165.441406 138.75 C 165.230469 139.261719 164.96875 139.75 164.660156 140.210938 C 164.351562 140.671875 164 141.097656 163.609375 141.488281 C 163.214844 141.882812 162.789062 142.230469 162.324219 142.539062 C 161.863281 142.847656 161.375 143.109375 160.863281 143.320312 C 160.351562 143.53125 159.820312 143.691406 159.277344 143.800781 C 158.730469 143.910156 158.179688 143.964844 157.625 143.964844 C 157.070312 143.964844 156.519531 143.910156 155.976562 143.800781 C 155.429688 143.691406 154.902344 143.53125 154.386719 143.320312 C 153.875 143.109375 153.386719 142.847656 152.925781 142.539062 C 152.464844 142.230469 152.035156 141.882812 151.644531 141.488281 C 151.25 141.097656 150.898438 140.671875 150.589844 140.210938 C 150.28125 139.75 150.023438 139.261719 149.808594 138.75 C 149.597656 138.238281 149.4375 137.710938 149.328125 137.164062 C 149.21875 136.621094 149.164062 136.074219 149.164062 135.519531 C 149.164062 134.964844 149.21875 134.414062 149.328125 133.871094 C 149.4375 133.328125 149.597656 132.800781 149.808594 132.285156 C 150.023438 131.773438 150.28125 131.289062 150.589844 130.828125 C 150.898438 130.367188 151.25 129.9375 151.644531 129.546875 C 152.035156 129.15625 152.464844 128.804688 152.925781 128.496094 C 153.386719 128.1875 153.875 127.929688 154.386719 127.714844 C 154.902344 127.503906 155.429688 127.34375 155.976562 127.234375 C 156.519531 127.128906 157.070312 127.074219 157.625 127.074219 C 158.179688 127.074219 158.730469 127.128906 159.277344 127.234375 C 159.820312 127.34375 160.351562 127.503906 160.863281 127.714844 C 161.375 127.929688 161.863281 128.1875 162.324219 128.496094 C 162.789062 128.804688 163.214844 129.15625 163.609375 129.546875 C 164 129.9375 164.351562 130.367188 164.660156 130.828125 C 164.96875 131.289062 165.230469 131.773438 165.441406 132.285156 C 165.652344 132.800781 165.8125 133.328125 165.921875 133.871094 C 166.03125 134.414062 166.085938 134.964844 166.085938 135.519531 Z M 166.085938 135.519531 " fill-opacity="1" fill-rule="nonzero"/></svg>